<?xml version="1.0" encoding="utf-8"?>
<!-- Generator: Adobe Illustrator 16.0.0, SVG Export Plug-In . SVG Version: 6.00 Build 0)  -->
<!DOCTYPE svg PUBLIC "-//W3C//DTD SVG 1.1//EN" "http://www.w3.org/Graphics/SVG/1.1/DTD/svg11.dtd">
<svg version="1.1" id="Layer_1" xmlns="http://www.w3.org/2000/svg" xmlns:xlink="http://www.w3.org/1999/xlink" x="0px" y="0px"
	 width="185.517px" height="242.069px" viewBox="0 0 185.517 242.069" enable-background="new 0 0 185.517 242.069"
	 xml:space="preserve">
<path fill="#D6F4EE" d="M39.671,131.81c-6.857,5.775-12.586,11.732-17.188,17.875s-8.051,12.282-10.352,18.425
	s-3.451,12.1-3.451,17.875c0,6.381,1.417,12.34,4.254,17.877s7.047,10.389,12.633,14.553c5.583,4.164,12.542,7.444,20.874,9.836
	c8.33,2.391,17.991,3.587,28.979,3.587c8.534,0,16.138-0.863,22.811-2.592c6.672-1.729,12.413-3.63,17.226-5.706
	c5.537-2.418,10.439-5.185,14.706-8.297c0,0.09,0.827,1.032,2.484,2.826c1.655,1.795,3.588,3.875,5.797,6.24
	c2.207,2.366,4.439,4.666,6.693,6.899s3.982,3.832,5.179,4.796c1.656,1.313,3.541,1.971,5.659,1.971c2.189,0,4.45-0.658,6.78-1.974
	c2.329-1.319,4.453-2.964,6.37-4.938c1.918-1.974,3.494-4.124,4.728-6.452c1.231-2.325,1.849-4.496,1.849-6.517
	c0-2.296-0.734-4.107-2.204-5.433c-1.011-0.883-2.549-2.119-4.615-3.709s-4.156-3.18-6.268-4.77
	c-2.113-1.59-3.994-2.979-5.647-4.173c-1.653-1.191-2.618-1.788-2.893-1.788c7.797-5.959,13.327-11.939,16.594-17.943
	c3.264-6.004,4.897-11.803,4.897-17.396c0-4.491-0.853-8.821-2.553-12.993c-1.702-4.17-3.877-8.043-6.522-11.619
	c-2.648-3.574-5.627-6.805-8.936-9.693c-3.311-2.888-6.525-5.361-9.645-7.425c-3.12-2.063-6.005-3.666-8.651-4.813
	c-2.646-1.146-4.678-1.72-6.097-1.72c-0.184,0-0.546,0.207-1.091,0.618c-0.546,0.414-1.114,0.895-1.704,1.445
	c-0.593,0.55-1.114,1.055-1.568,1.514c-0.456,0.458-0.682,0.733-0.682,0.822c2.454,3.943,4.726,7.268,6.817,9.971
	c2.09,2.704,3.886,5.249,5.386,7.632s2.658,4.813,3.477,7.286c0.818,2.477,1.228,5.455,1.228,8.938c0,1.56-0.068,3.094-0.205,4.607
	c-0.136,1.514-0.478,3.003-1.022,4.469c-0.545,1.467-1.387,2.933-2.522,4.399c-1.138,1.466-2.658,2.888-4.567,4.263
	c-3.004-5.224-6.257-10.654-9.76-16.294c-3.502-5.637-6.872-11.022-10.11-16.157c-3.238-5.132-6.159-9.784-8.758-13.955
	c-2.6-4.171-4.446-7.357-5.542-9.557c8.833-5.409,16.345-11,22.536-16.775c6.19-5.776,11.244-11.573,15.159-17.394
	c3.916-5.82,6.738-11.549,8.469-17.189c1.729-5.637,2.595-11.023,2.595-16.157c0-6.068-1.116-11.662-3.347-16.782
	c-2.23-5.119-5.35-9.576-9.354-13.369c-4.005-3.794-8.808-6.756-14.406-8.89c-5.599-2.134-11.721-3.201-18.366-3.201
	c-7.734,0-15.087,1.575-22.058,4.721c-6.971,3.148-13.11,7.4-18.415,12.753c-5.307,5.356-9.533,11.509-12.682,18.461
	s-4.721,14.234-4.721,21.844c0,4.309,0.514,8.87,1.541,13.683s2.324,9.604,3.888,14.369c1.563,4.765,3.259,9.303,5.091,13.612
	c1.832,4.309,3.596,8.067,5.294,11.274C54.559,120.625,46.527,126.034,39.671,131.81z M61.792,203.723
	c-4.138-1.283-7.553-3.026-10.25-5.226c-2.697-2.199-4.697-4.789-6.001-7.769c-1.304-2.979-1.956-6.211-1.956-9.695
	c0-3.574,0.607-7.264,1.824-11.067c1.214-3.805,2.993-7.632,5.334-11.481c2.339-3.849,5.219-7.632,8.641-11.345
	c3.421-3.712,7.292-7.219,11.615-10.52c3.977,7.333,7.503,13.591,10.579,18.77c3.074,5.179,6.036,9.899,8.884,14.163
	c2.846,4.262,5.762,8.342,8.748,12.237c2.982,3.896,6.419,8.182,10.309,12.858c-4.894,3.209-10.149,5.844-15.765,7.906
	c-5.618,2.063-11.372,3.093-17.26,3.093C70.829,205.648,65.929,205.006,61.792,203.723z M116.359,36.45
	c2.371,0.688,4.242,1.673,5.609,2.956c1.368,1.283,2.35,2.843,2.942,4.676c0.592,1.833,0.891,3.896,0.891,6.187
	c0,4.127-0.708,8.114-2.122,11.963c-1.415,3.85-3.398,7.654-5.952,11.413c-2.555,3.76-5.678,7.541-9.372,11.345
	c-3.694,3.805-7.775,7.769-12.245,11.893c-0.184,0-0.731-1.351-1.643-4.056c-0.912-2.702-1.916-6.004-3.01-9.899
	c-1.095-3.896-2.077-7.952-2.942-12.17c-0.867-4.216-1.299-7.837-1.299-10.863c0-3.482,0.684-6.713,2.052-9.693
	c1.368-2.979,3.078-5.569,5.132-7.769c2.052-2.199,4.263-3.919,6.636-5.158c2.371-1.236,4.515-1.856,6.432-1.856
	C111.022,35.418,113.986,35.764,116.359,36.45z"/>
</svg>
