<?xml version="1.0" encoding="utf-8"?>
<!-- Generator: Adobe Illustrator 16.0.0, SVG Export Plug-In . SVG Version: 6.00 Build 0)  -->
<!DOCTYPE svg PUBLIC "-//W3C//DTD SVG 1.1//EN" "http://www.w3.org/Graphics/SVG/1.1/DTD/svg11.dtd">
<svg version="1.1" id="Layer_1" xmlns="http://www.w3.org/2000/svg" xmlns:xlink="http://www.w3.org/1999/xlink" x="0px" y="0px"
	 width="2089.882px" height="939.764px" viewBox="0 0 2089.882 939.764" enable-background="new 0 0 2089.882 939.764"
	 xml:space="preserve">
<g>
	<polygon fill-rule="evenodd" clip-rule="evenodd" fill="#FCFCFC" points="2037.635,0 1985.388,91.697 1933.141,0 1880.894,91.697 
		1828.646,0 1776.399,91.697 1724.152,0 1671.905,91.697 1671.905,91.699 1619.659,0 1567.411,91.699 1515.165,0 1462.917,91.699 
		1410.671,0 1358.423,91.699 1306.177,0 1253.929,91.699 1201.683,0 1149.435,91.699 1097.188,0 1044.94,91.699 992.693,0 
		940.447,91.699 888.199,0 835.953,91.699 783.707,0 731.459,91.699 679.213,0 626.965,91.699 574.718,0 522.471,91.699 470.224,0 
		417.977,91.699 365.729,0 313.482,91.699 261.235,0 208.988,91.699 156.741,0 104.494,91.699 52.247,0 0,91.699 0,156.826 
		52.247,65.414 104.494,156.826 156.741,65.414 208.988,156.826 261.235,65.414 313.482,156.826 365.729,65.414 417.977,156.826 
		470.224,65.414 522.471,156.826 574.718,65.414 626.965,156.826 679.213,65.414 731.459,156.826 783.707,65.414 835.953,156.826 
		888.199,65.414 940.447,156.826 992.693,65.414 1044.94,156.826 1097.188,65.414 1149.435,156.826 1201.683,65.414 
		1253.929,156.826 1306.177,65.414 1358.423,156.826 1410.671,65.414 1462.917,156.826 1515.165,65.414 1567.411,156.826 
		1619.659,65.414 1671.905,156.826 1724.152,65.414 1776.399,156.826 1828.646,65.414 1880.894,156.826 1933.141,65.414 
		1985.388,156.826 2037.635,65.414 2089.882,156.826 2089.882,91.697 	"/>
	<polygon fill-rule="evenodd" clip-rule="evenodd" fill="#FCFCFC" points="1985.388,222.187 1933.141,130.49 1880.894,222.187 
		1828.646,130.49 1776.399,222.187 1724.152,130.49 1671.905,222.187 1671.905,222.189 1619.659,130.49 1567.411,222.189 
		1515.165,130.49 1462.917,222.189 1410.671,130.49 1358.423,222.189 1306.177,130.49 1253.929,222.189 1201.683,130.49 
		1149.435,222.189 1097.188,130.49 1044.94,222.189 992.694,130.49 940.446,222.189 888.2,130.49 835.952,222.189 783.706,130.49 
		731.458,222.189 679.212,130.49 626.964,222.189 574.718,130.49 522.471,222.189 470.224,130.49 417.977,222.189 365.729,130.49 
		313.482,222.189 261.235,130.49 208.988,222.189 156.741,130.49 104.494,222.189 52.247,130.49 0,222.189 0,287.316 
		52.247,195.904 104.494,287.316 156.741,195.904 208.988,287.316 261.235,195.904 313.482,287.316 365.729,195.904 
		417.977,287.316 470.224,195.904 522.471,287.316 574.718,195.904 626.964,287.316 679.212,195.904 731.458,287.316 
		783.706,195.904 835.952,287.316 888.2,195.904 940.446,287.316 992.694,195.904 1044.94,287.316 1097.188,195.904 
		1149.435,287.316 1201.683,195.904 1253.929,287.316 1306.177,195.904 1358.423,287.316 1410.671,195.904 1462.917,287.316 
		1515.165,195.904 1567.411,287.316 1619.659,195.904 1671.905,287.316 1724.152,195.904 1776.399,287.316 1828.646,195.904 
		1880.894,287.316 1933.141,195.904 1985.388,287.316 2037.635,195.904 2089.882,287.316 2089.882,222.187 2037.635,130.49 	"/>
	<polygon fill-rule="evenodd" clip-rule="evenodd" fill="#FCFCFC" points="1985.388,352.676 1933.141,260.979 1880.894,352.676 
		1828.646,260.979 1776.399,352.676 1724.152,260.979 1671.905,352.676 1671.905,352.678 1619.659,260.979 1567.411,352.678 
		1515.165,260.979 1462.917,352.678 1410.671,260.979 1358.423,352.678 1306.177,260.979 1253.929,352.678 1201.683,260.979 
		1149.435,352.678 1097.188,260.979 1044.94,352.678 992.693,260.979 940.447,352.678 888.199,260.979 835.953,352.678 
		783.707,260.979 731.459,352.678 679.213,260.979 626.965,352.678 574.718,260.979 522.471,352.678 470.224,260.979 
		417.977,352.678 365.729,260.979 313.482,352.678 261.235,260.979 208.988,352.678 156.741,260.979 104.494,352.678 
		52.247,260.979 0,352.678 0,417.805 52.247,326.393 104.494,417.805 156.741,326.393 208.988,417.805 261.235,326.393 
		313.482,417.805 365.729,326.393 417.977,417.805 470.224,326.393 522.471,417.805 574.718,326.393 626.965,417.805 
		679.213,326.393 731.459,417.805 783.707,326.393 835.953,417.805 888.199,326.393 940.447,417.805 992.693,326.393 
		1044.94,417.805 1097.188,326.393 1149.435,417.805 1201.683,326.393 1253.929,417.805 1306.177,326.393 1358.423,417.805 
		1410.671,326.393 1462.917,417.805 1515.165,326.393 1567.411,417.805 1619.659,326.393 1671.905,417.805 1724.152,326.393 
		1776.399,417.805 1828.646,326.393 1880.894,417.805 1933.141,326.393 1985.388,417.805 2037.635,326.393 2089.882,417.805 
		2089.882,352.676 2037.635,260.979 	"/>
	<polygon fill-rule="evenodd" clip-rule="evenodd" fill="#FCFCFC" points="1985.388,874.635 1933.141,782.938 1880.894,874.635 
		1828.646,782.938 1776.399,874.635 1724.152,782.938 1671.905,874.635 1671.905,874.637 1619.659,782.938 1567.411,874.637 
		1515.165,782.938 1462.917,874.637 1410.671,782.938 1358.423,874.637 1306.177,782.938 1253.929,874.637 1201.683,782.938 
		1149.435,874.637 1097.188,782.938 1044.94,874.637 992.694,782.938 940.446,874.637 888.2,782.938 835.952,874.637 
		783.706,782.938 731.458,874.637 679.212,782.938 626.964,874.637 574.718,782.938 522.471,874.637 470.224,782.938 
		417.977,874.637 365.729,782.938 313.482,874.637 261.235,782.938 208.988,874.637 156.741,782.938 104.494,874.637 
		52.247,782.938 0,874.637 0,939.764 52.247,848.352 104.494,939.764 156.741,848.352 208.988,939.764 261.235,848.352 
		313.482,939.764 365.729,848.352 417.977,939.764 470.224,848.352 522.471,939.764 574.718,848.352 626.964,939.764 
		679.212,848.352 731.458,939.764 783.706,848.352 835.952,939.764 888.2,848.352 940.446,939.764 992.694,848.352 1044.94,939.764 
		1097.188,848.352 1149.435,939.764 1201.683,848.352 1253.929,939.764 1306.177,848.352 1358.423,939.764 1410.671,848.352 
		1462.917,939.764 1515.165,848.352 1567.411,939.764 1619.659,848.352 1671.905,939.764 1724.152,848.352 1776.399,939.764 
		1828.646,848.352 1880.894,939.764 1933.141,848.352 1985.388,939.764 2037.635,848.352 2089.882,939.764 2089.882,874.635 
		2037.635,782.938 	"/>
	<polygon fill-rule="evenodd" clip-rule="evenodd" fill="#FCFCFC" points="1985.388,483.167 1933.141,391.469 1880.894,483.167 
		1828.646,391.469 1776.399,483.167 1724.152,391.469 1671.905,483.167 1671.905,483.168 1619.659,391.469 1567.411,483.168 
		1515.165,391.469 1462.917,483.168 1410.671,391.469 1358.423,483.168 1306.177,391.469 1253.929,483.168 1201.683,391.469 
		1149.435,483.168 1097.188,391.469 1044.94,483.168 992.693,391.469 940.447,483.168 888.199,391.469 835.953,483.168 
		783.707,391.469 731.459,483.168 679.213,391.469 626.965,483.168 574.718,391.469 522.471,483.168 470.224,391.469 
		417.977,483.168 365.729,391.469 313.482,483.168 261.235,391.469 208.988,483.168 156.741,391.469 104.494,483.168 
		52.247,391.469 0,483.168 0,548.295 52.247,456.883 104.494,548.295 156.741,456.883 208.988,548.295 261.235,456.883 
		313.482,548.295 365.729,456.883 417.977,548.295 470.224,456.883 522.471,548.295 574.718,456.883 626.965,548.295 
		679.213,456.883 731.459,548.295 783.707,456.883 835.953,548.295 888.199,456.883 940.447,548.295 992.693,456.883 
		1044.94,548.295 1097.188,456.883 1149.435,548.295 1201.683,456.883 1253.929,548.295 1306.177,456.883 1358.423,548.295 
		1410.671,456.883 1462.917,548.295 1515.165,456.883 1567.411,548.295 1619.659,456.883 1671.905,548.295 1724.152,456.883 
		1776.399,548.295 1828.646,456.883 1880.894,548.295 1933.141,456.883 1985.388,548.295 2037.635,456.883 2089.882,548.295 
		2089.882,483.167 2037.635,391.469 	"/>
	<polygon fill-rule="evenodd" clip-rule="evenodd" fill="#FCFCFC" points="1985.388,613.656 1933.141,521.959 1880.894,613.656 
		1828.646,521.959 1776.399,613.656 1724.152,521.959 1671.905,613.656 1671.905,613.658 1619.659,521.959 1567.411,613.658 
		1515.165,521.959 1462.917,613.658 1410.671,521.959 1358.423,613.658 1306.177,521.959 1253.929,613.658 1201.683,521.959 
		1149.435,613.658 1097.188,521.959 1044.94,613.658 992.693,521.959 940.447,613.658 888.199,521.959 835.953,613.658 
		783.707,521.959 731.459,613.658 679.213,521.959 626.965,613.658 574.718,521.959 522.471,613.658 470.224,521.959 
		417.977,613.658 365.729,521.959 313.482,613.658 261.235,521.959 208.988,613.658 156.741,521.959 104.494,613.658 
		52.247,521.959 0,613.658 0,678.785 52.247,587.373 104.494,678.785 156.741,587.373 208.988,678.785 261.235,587.373 
		313.482,678.785 365.729,587.373 417.977,678.785 470.224,587.373 522.471,678.785 574.718,587.373 626.965,678.785 
		679.213,587.373 731.459,678.785 783.707,587.373 835.953,678.785 888.199,587.373 940.447,678.785 992.693,587.373 
		1044.94,678.785 1097.188,587.373 1149.435,678.785 1201.683,587.373 1253.929,678.785 1306.177,587.373 1358.423,678.785 
		1410.671,587.373 1462.917,678.785 1515.165,587.373 1567.411,678.785 1619.659,587.373 1671.905,678.785 1724.152,587.373 
		1776.399,678.785 1828.646,587.373 1880.894,678.785 1933.141,587.373 1985.388,678.785 2037.635,587.373 2089.882,678.785 
		2089.882,613.656 2037.635,521.959 	"/>
	<polygon fill-rule="evenodd" clip-rule="evenodd" fill="#FCFCFC" points="1985.388,744.146 1933.141,652.449 1880.894,744.146 
		1828.646,652.449 1776.399,744.146 1724.152,652.449 1671.905,744.146 1671.905,744.148 1619.659,652.449 1567.411,744.148 
		1515.165,652.449 1462.917,744.148 1410.671,652.449 1358.423,744.148 1306.177,652.449 1253.929,744.148 1201.683,652.449 
		1149.435,744.148 1097.188,652.449 1044.94,744.148 992.693,652.449 940.447,744.148 888.199,652.449 835.953,744.148 
		783.707,652.449 731.459,744.148 679.213,652.449 626.965,744.148 574.718,652.449 522.471,744.148 470.224,652.449 
		417.977,744.148 365.729,652.449 313.482,744.148 261.235,652.449 208.988,744.148 156.741,652.449 104.494,744.148 
		52.247,652.449 0,744.148 0,809.275 52.247,717.863 104.494,809.275 156.741,717.863 208.988,809.275 261.235,717.863 
		313.482,809.275 365.729,717.863 417.977,809.275 470.224,717.863 522.471,809.275 574.718,717.863 626.965,809.275 
		679.213,717.863 731.459,809.275 783.707,717.863 835.953,809.275 888.199,717.863 940.447,809.275 992.693,717.863 
		1044.94,809.275 1097.188,717.863 1149.435,809.275 1201.683,717.863 1253.929,809.275 1306.177,717.863 1358.423,809.275 
		1410.671,717.863 1462.917,809.275 1515.165,717.863 1567.411,809.275 1619.659,717.863 1671.905,809.275 1724.152,717.863 
		1776.399,809.275 1828.646,717.863 1880.894,809.275 1933.141,717.863 1985.388,809.275 2037.635,717.863 2089.882,809.275 
		2089.882,744.146 2037.635,652.449 	"/>
</g>
</svg>
