<?xml version="1.0" encoding="utf-8"?>
<!-- Generator: Adobe Illustrator 16.0.0, SVG Export Plug-In . SVG Version: 6.00 Build 0)  -->
<!DOCTYPE svg PUBLIC "-//W3C//DTD SVG 1.1//EN" "http://www.w3.org/Graphics/SVG/1.1/DTD/svg11.dtd">
<svg version="1.1" id="Layer_1" xmlns="http://www.w3.org/2000/svg" xmlns:xlink="http://www.w3.org/1999/xlink" x="0px" y="0px"
	 width="2089.882px" height="939.764px" viewBox="0 0 2089.882 939.764" enable-background="new 0 0 2089.882 939.764"
	 xml:space="preserve">
<g>
	<polygon fill="#fcfaf8" points="2037.619,393.129 1985.373,446.467 1933.125,393.129 1880.878,446.467 1828.63,393.129 
		1776.384,446.467 1724.136,393.129 1671.89,446.467 1671.89,446.468 1619.644,393.129 1567.396,446.468 1515.15,393.129 
		1462.902,446.468 1410.656,393.129 1358.408,446.468 1306.162,393.129 1253.914,446.468 1201.667,393.129 1149.419,446.468 
		1097.171,393.129 1044.924,446.468 992.678,393.129 940.432,446.468 888.184,393.129 835.938,446.468 783.691,393.129 
		731.443,446.468 679.197,393.129 626.949,446.468 574.702,393.129 522.455,446.468 470.208,393.129 417.961,446.468 
		365.713,393.129 313.467,446.468 261.219,393.129 208.972,446.468 156.726,393.129 104.479,446.468 52.231,393.129 -0.016,446.468 
		-0.016,484.351 52.231,431.179 104.479,484.351 156.726,431.179 208.972,484.351 261.219,431.179 313.467,484.351 365.713,431.179 
		417.961,484.351 470.208,431.179 522.455,484.351 574.702,431.179 626.949,484.351 679.197,431.179 731.443,484.351 
		783.691,431.179 835.938,484.351 888.184,431.179 940.432,484.351 992.678,431.179 1044.924,484.351 1097.171,431.179 
		1149.419,484.351 1201.667,431.179 1253.914,484.351 1306.162,431.179 1358.408,484.351 1410.656,431.179 1462.902,484.351 
		1515.15,431.179 1567.396,484.351 1619.644,431.179 1671.89,484.351 1724.136,431.179 1776.384,484.351 1828.63,431.179 
		1880.878,484.351 1933.125,431.179 1985.373,484.351 2037.619,431.179 2089.867,484.351 2089.867,446.467 	"/>
	<polygon fill="#fcfaf8" points="1985.373,522.369 1933.125,469.032 1880.878,522.369 1828.63,469.032 1776.384,522.369 
		1724.136,469.032 1671.89,522.369 1671.89,522.37 1619.644,469.032 1567.396,522.37 1515.15,469.032 1462.902,522.37 
		1410.656,469.032 1358.408,522.37 1306.162,469.032 1253.914,522.37 1201.667,469.032 1149.419,522.37 1097.171,469.032 
		1044.924,522.37 992.679,469.032 940.431,522.37 888.185,469.032 835.937,522.37 783.69,469.032 731.442,522.37 679.196,469.032 
		626.948,522.37 574.702,469.032 522.455,522.37 470.208,469.032 417.961,522.37 365.713,469.032 313.467,522.37 261.219,469.032 
		208.972,522.37 156.726,469.032 104.479,522.37 52.231,469.032 -0.016,522.37 -0.016,560.253 52.231,507.081 104.479,560.253 
		156.726,507.081 208.972,560.253 261.219,507.081 313.467,560.253 365.713,507.081 417.961,560.253 470.208,507.081 
		522.455,560.253 574.702,507.081 626.948,560.253 679.196,507.081 731.442,560.253 783.69,507.081 835.937,560.253 
		888.185,507.081 940.431,560.253 992.679,507.081 1044.924,560.253 1097.171,507.081 1149.419,560.253 1201.667,507.081 
		1253.914,560.253 1306.162,507.081 1358.408,560.253 1410.656,507.081 1462.902,560.253 1515.15,507.081 1567.396,560.253 
		1619.644,507.081 1671.89,560.253 1724.136,507.081 1776.384,560.253 1828.63,507.081 1880.878,560.253 1933.125,507.081 
		1985.373,560.253 2037.619,507.081 2089.867,560.253 2089.867,522.369 2037.619,469.032 	"/>
	<polygon fill="#fcfaf8" points="1985.373,598.271 1933.125,544.934 1880.878,598.271 1828.63,544.934 1776.384,598.271 
		1724.136,544.934 1671.89,598.271 1671.89,598.272 1619.644,544.934 1567.396,598.272 1515.15,544.934 1462.902,598.272 
		1410.656,544.934 1358.408,598.272 1306.162,544.934 1253.914,598.272 1201.667,544.934 1149.419,598.272 1097.171,544.934 
		1044.924,598.272 992.678,544.934 940.432,598.272 888.184,544.934 835.938,598.272 783.691,544.934 731.443,598.272 
		679.197,544.934 626.949,598.272 574.702,544.934 522.455,598.272 470.208,544.934 417.961,598.272 365.713,544.934 
		313.467,598.272 261.219,544.934 208.972,598.272 156.726,544.934 104.479,598.272 52.231,544.934 -0.016,598.272 -0.016,636.155 
		52.231,582.983 104.479,636.155 156.726,582.983 208.972,636.155 261.219,582.983 313.467,636.155 365.713,582.983 
		417.961,636.155 470.208,582.983 522.455,636.155 574.702,582.983 626.949,636.155 679.197,582.983 731.443,636.155 
		783.691,582.983 835.938,636.155 888.184,582.983 940.432,636.155 992.678,582.983 1044.924,636.155 1097.171,582.983 
		1149.419,636.155 1201.667,582.983 1253.914,636.155 1306.162,582.983 1358.408,636.155 1410.656,582.983 1462.902,636.155 
		1515.15,582.983 1567.396,636.155 1619.644,582.983 1671.89,636.155 1724.136,582.983 1776.384,636.155 1828.63,582.983 
		1880.878,636.155 1933.125,582.983 1985.373,636.155 2037.619,582.983 2089.867,636.155 2089.867,598.271 2037.619,544.934 	"/>
	<polygon fill="#fcfaf8" points="1985.373,901.88 1933.125,848.542 1880.878,901.88 1828.63,848.542 1776.384,901.88 
		1724.136,848.542 1671.89,901.88 1671.89,901.881 1619.644,848.542 1567.396,901.881 1515.15,848.542 1462.902,901.881 
		1410.656,848.542 1358.408,901.881 1306.162,848.542 1253.914,901.881 1201.667,848.542 1149.419,901.881 1097.171,848.542 
		1044.924,901.881 992.679,848.542 940.431,901.881 888.185,848.542 835.937,901.881 783.69,848.542 731.442,901.881 
		679.196,848.542 626.948,901.881 574.702,848.542 522.455,901.881 470.208,848.542 417.961,901.881 365.713,848.542 
		313.467,901.881 261.219,848.542 208.972,901.881 156.726,848.542 104.479,901.881 52.231,848.542 -0.016,901.881 -0.016,939.764 
		52.231,886.592 104.479,939.764 156.726,886.592 208.972,939.764 261.219,886.592 313.467,939.764 365.713,886.592 
		417.961,939.764 470.208,886.592 522.455,939.764 574.702,886.592 626.948,939.764 679.196,886.592 731.442,939.764 
		783.69,886.592 835.937,939.764 888.185,886.592 940.431,939.764 992.679,886.592 1044.924,939.764 1097.171,886.592 
		1149.419,939.764 1201.667,886.592 1253.914,939.764 1306.162,886.592 1358.408,939.764 1410.656,886.592 1462.902,939.764 
		1515.15,886.592 1567.396,939.764 1619.644,886.592 1671.89,939.764 1724.136,886.592 1776.384,939.764 1828.63,886.592 
		1880.878,939.764 1933.125,886.592 1985.373,939.764 2037.619,886.592 2089.867,939.764 2089.867,901.88 2037.619,848.542 	"/>
	<polygon fill="#fcfaf8" points="1985.373,674.175 1933.125,620.835 1880.878,674.175 1828.63,620.835 1776.384,674.175 
		1724.136,620.835 1671.89,674.175 1671.89,674.175 1619.644,620.835 1567.396,674.175 1515.15,620.835 1462.902,674.175 
		1410.656,620.835 1358.408,674.175 1306.162,620.835 1253.914,674.175 1201.667,620.835 1149.419,674.175 1097.171,620.835 
		1044.924,674.175 992.678,620.835 940.432,674.175 888.184,620.835 835.938,674.175 783.691,620.835 731.443,674.175 
		679.197,620.835 626.949,674.175 574.702,620.835 522.455,674.175 470.208,620.835 417.961,674.175 365.713,620.835 
		313.467,674.175 261.219,620.835 208.972,674.175 156.726,620.835 104.479,674.175 52.231,620.835 -0.016,674.175 -0.016,712.058 
		52.231,658.885 104.479,712.058 156.726,658.885 208.972,712.058 261.219,658.885 313.467,712.058 365.713,658.885 
		417.961,712.058 470.208,658.885 522.455,712.058 574.702,658.885 626.949,712.058 679.197,658.885 731.443,712.058 
		783.691,658.885 835.938,712.058 888.184,658.885 940.432,712.058 992.678,658.885 1044.924,712.058 1097.171,658.885 
		1149.419,712.058 1201.667,658.885 1253.914,712.058 1306.162,658.885 1358.408,712.058 1410.656,658.885 1462.902,712.058 
		1515.15,658.885 1567.396,712.058 1619.644,658.885 1671.89,712.058 1724.136,658.885 1776.384,712.058 1828.63,658.885 
		1880.878,712.058 1933.125,658.885 1985.373,712.058 2037.619,658.885 2089.867,712.058 2089.867,674.175 2037.619,620.835 	"/>
	<polygon fill="#fcfaf8" points="1985.373,750.076 1933.125,696.738 1880.878,750.076 1828.63,696.738 1776.384,750.076 
		1724.136,696.738 1671.89,750.076 1671.89,750.077 1619.644,696.738 1567.396,750.077 1515.15,696.738 1462.902,750.077 
		1410.656,696.738 1358.408,750.077 1306.162,696.738 1253.914,750.077 1201.667,696.738 1149.419,750.077 1097.171,696.738 
		1044.924,750.077 992.678,696.738 940.432,750.077 888.184,696.738 835.938,750.077 783.691,696.738 731.443,750.077 
		679.197,696.738 626.949,750.077 574.702,696.738 522.455,750.077 470.208,696.738 417.961,750.077 365.713,696.738 
		313.467,750.077 261.219,696.738 208.972,750.077 156.726,696.738 104.479,750.077 52.231,696.738 -0.016,750.077 -0.016,787.959 
		52.231,734.788 104.479,787.959 156.726,734.788 208.972,787.959 261.219,734.788 313.467,787.959 365.713,734.788 
		417.961,787.959 470.208,734.788 522.455,787.959 574.702,734.788 626.949,787.959 679.197,734.788 731.443,787.959 
		783.691,734.788 835.938,787.959 888.184,734.788 940.432,787.959 992.678,734.788 1044.924,787.959 1097.171,734.788 
		1149.419,787.959 1201.667,734.788 1253.914,787.959 1306.162,734.788 1358.408,787.959 1410.656,734.788 1462.902,787.959 
		1515.15,734.788 1567.396,787.959 1619.644,734.788 1671.89,787.959 1724.136,734.788 1776.384,787.959 1828.63,734.788 
		1880.878,787.959 1933.125,734.788 1985.373,787.959 2037.619,734.788 2089.867,787.959 2089.867,750.076 2037.619,696.738 	"/>
	<polygon fill="#fcfaf8" points="1985.373,825.979 1933.125,772.641 1880.878,825.979 1828.63,772.641 1776.384,825.979 
		1724.136,772.641 1671.89,825.979 1671.89,825.979 1619.644,772.641 1567.396,825.979 1515.15,772.641 1462.902,825.979 
		1410.656,772.641 1358.408,825.979 1306.162,772.641 1253.914,825.979 1201.667,772.641 1149.419,825.979 1097.171,772.641 
		1044.924,825.979 992.678,772.641 940.432,825.979 888.184,772.641 835.938,825.979 783.691,772.641 731.443,825.979 
		679.197,772.641 626.949,825.979 574.702,772.641 522.455,825.979 470.208,772.641 417.961,825.979 365.713,772.641 
		313.467,825.979 261.219,772.641 208.972,825.979 156.726,772.641 104.479,825.979 52.231,772.641 -0.016,825.979 -0.016,863.862 
		52.231,810.69 104.479,863.862 156.726,810.69 208.972,863.862 261.219,810.69 313.467,863.862 365.713,810.69 417.961,863.862 
		470.208,810.69 522.455,863.862 574.702,810.69 626.949,863.862 679.197,810.69 731.443,863.862 783.691,810.69 835.938,863.862 
		888.184,810.69 940.432,863.862 992.678,810.69 1044.924,863.862 1097.171,810.69 1149.419,863.862 1201.667,810.69 
		1253.914,863.862 1306.162,810.69 1358.408,863.862 1410.656,810.69 1462.902,863.862 1515.15,810.69 1567.396,863.862 
		1619.644,810.69 1671.89,863.862 1724.136,810.69 1776.384,863.862 1828.63,810.69 1880.878,863.862 1933.125,810.69 
		1985.373,863.862 2037.619,810.69 2089.867,863.862 2089.867,825.979 2037.619,772.641 	"/>
</g>
<g>
	<polygon fill="#fcfaf8" points="1985.373,-8.952 1933.125,-62.29 1880.878,-8.952 1828.63,-62.29 1776.384,-8.952 1724.136,-62.29 
		1671.89,-8.952 1671.89,-8.951 1619.644,-62.29 1567.396,-8.951 1515.15,-62.29 1462.902,-8.951 1410.656,-62.29 1358.408,-8.951 
		1306.162,-62.29 1253.914,-8.951 1201.667,-62.29 1149.419,-8.951 1097.171,-62.29 1044.923,-8.951 992.679,-62.29 940.431,-8.951 
		888.185,-62.29 835.937,-8.951 783.69,-62.29 731.442,-8.951 679.196,-62.29 626.948,-8.951 574.702,-62.29 522.455,-8.951 
		470.208,-62.29 417.961,-8.951 365.713,-62.29 313.467,-8.951 261.219,-62.29 208.972,-8.951 156.726,-62.29 104.479,-8.951 
		52.231,-62.29 -0.016,-8.951 -0.016,28.932 52.231,-24.24 104.479,28.932 156.726,-24.24 208.972,28.932 261.219,-24.24 
		313.467,28.932 365.713,-24.24 417.961,28.932 470.208,-24.24 522.455,28.932 574.702,-24.24 626.948,28.932 679.196,-24.24 
		731.442,28.932 783.69,-24.24 835.937,28.932 888.185,-24.24 940.431,28.932 992.679,-24.24 1044.923,28.932 1097.171,-24.24 
		1149.419,28.932 1201.667,-24.24 1253.914,28.932 1306.162,-24.24 1358.408,28.932 1410.656,-24.24 1462.902,28.932 
		1515.15,-24.24 1567.396,28.932 1619.644,-24.24 1671.89,28.932 1724.136,-24.24 1776.384,28.932 1828.63,-24.24 1880.878,28.932 
		1933.125,-24.24 1985.373,28.932 2037.619,-24.24 2089.867,28.932 2089.867,-8.952 2037.619,-62.29 	"/>
	<polygon fill="#fcfaf8" points="1985.373,66.949 1933.125,13.612 1880.878,66.949 1828.63,13.612 1776.384,66.949 1724.136,13.612 
		1671.89,66.949 1671.89,66.951 1619.644,13.612 1567.396,66.951 1515.15,13.612 1462.902,66.951 1410.656,13.612 1358.408,66.951 
		1306.162,13.612 1253.914,66.951 1201.667,13.612 1149.419,66.951 1097.171,13.612 1044.923,66.951 992.677,13.612 940.432,66.951 
		888.184,13.612 835.938,66.951 783.691,13.612 731.443,66.951 679.197,13.612 626.949,66.951 574.702,13.612 522.455,66.951 
		470.208,13.612 417.961,66.951 365.713,13.612 313.467,66.951 261.219,13.612 208.972,66.951 156.726,13.612 104.479,66.951 
		52.231,13.612 -0.016,66.951 -0.016,104.834 52.231,51.662 104.479,104.834 156.726,51.662 208.972,104.834 261.219,51.662 
		313.467,104.834 365.713,51.662 417.961,104.834 470.208,51.662 522.455,104.834 574.702,51.662 626.949,104.834 679.197,51.662 
		731.443,104.834 783.691,51.662 835.938,104.834 888.184,51.662 940.432,104.834 992.677,51.662 1044.923,104.834 1097.171,51.662 
		1149.419,104.834 1201.667,51.662 1253.914,104.834 1306.162,51.662 1358.408,104.834 1410.656,51.662 1462.902,104.834 
		1515.15,51.662 1567.396,104.834 1619.644,51.662 1671.89,104.834 1724.136,51.662 1776.384,104.834 1828.63,51.662 
		1880.878,104.834 1933.125,51.662 1985.373,104.834 2037.619,51.662 2089.867,104.834 2089.867,66.949 2037.619,13.612 	"/>
	<polygon fill="#fcfaf8" points="1985.373,370.559 1933.125,317.221 1880.878,370.559 1828.63,317.221 1776.384,370.559 
		1724.136,317.221 1671.89,370.559 1671.89,370.56 1619.644,317.221 1567.396,370.56 1515.15,317.221 1462.902,370.56 
		1410.656,317.221 1358.408,370.56 1306.162,317.221 1253.914,370.56 1201.667,317.221 1149.419,370.56 1097.171,317.221 
		1044.923,370.56 992.679,317.221 940.431,370.56 888.185,317.221 835.937,370.56 783.69,317.221 731.442,370.56 679.196,317.221 
		626.948,370.56 574.702,317.221 522.455,370.56 470.208,317.221 417.961,370.56 365.713,317.221 313.467,370.56 261.219,317.221 
		208.972,370.56 156.726,317.221 104.479,370.56 52.231,317.221 -0.016,370.56 -0.016,408.442 52.231,355.271 104.479,408.442 
		156.726,355.271 208.972,408.442 261.219,355.271 313.467,408.442 365.713,355.271 417.961,408.442 470.208,355.271 
		522.455,408.442 574.702,355.271 626.948,408.442 679.196,355.271 731.442,408.442 783.69,355.271 835.937,408.442 
		888.185,355.271 940.431,408.442 992.679,355.271 1044.923,408.442 1097.171,355.271 1149.419,408.442 1201.667,355.271 
		1253.914,408.442 1306.162,355.271 1358.408,408.442 1410.656,355.271 1462.902,408.442 1515.15,355.271 1567.396,408.442 
		1619.644,355.271 1671.89,408.442 1724.136,355.271 1776.384,408.442 1828.63,355.271 1880.878,408.442 1933.125,355.271 
		1985.373,408.442 2037.619,355.271 2089.867,408.442 2089.867,370.559 2037.619,317.221 	"/>
	<polygon fill="#fcfaf8" points="1985.373,142.854 1933.125,89.514 1880.878,142.854 1828.63,89.514 1776.384,142.854 
		1724.136,89.514 1671.89,142.854 1671.89,142.854 1619.644,89.514 1567.396,142.854 1515.15,89.514 1462.902,142.854 
		1410.656,89.514 1358.408,142.854 1306.162,89.514 1253.914,142.854 1201.667,89.514 1149.419,142.854 1097.171,89.514 
		1044.923,142.854 992.677,89.514 940.432,142.854 888.184,89.514 835.938,142.854 783.691,89.514 731.443,142.854 679.197,89.514 
		626.949,142.854 574.702,89.514 522.455,142.854 470.208,89.514 417.961,142.854 365.713,89.514 313.467,142.854 261.219,89.514 
		208.972,142.854 156.726,89.514 104.479,142.854 52.231,89.514 -0.016,142.854 -0.016,180.736 52.231,127.563 104.479,180.736 
		156.726,127.563 208.972,180.736 261.219,127.563 313.467,180.736 365.713,127.563 417.961,180.736 470.208,127.563 
		522.455,180.736 574.702,127.563 626.949,180.736 679.197,127.563 731.443,180.736 783.691,127.563 835.938,180.736 
		888.184,127.563 940.432,180.736 992.677,127.563 1044.923,180.736 1097.171,127.563 1149.419,180.736 1201.667,127.563 
		1253.914,180.736 1306.162,127.563 1358.408,180.736 1410.656,127.563 1462.902,180.736 1515.15,127.563 1567.396,180.736 
		1619.644,127.563 1671.89,180.736 1724.136,127.563 1776.384,180.736 1828.63,127.563 1880.878,180.736 1933.125,127.563 
		1985.373,180.736 2037.619,127.563 2089.867,180.736 2089.867,142.854 2037.619,89.514 	"/>
	<polygon fill="#fcfaf8" points="1985.373,218.755 1933.125,165.417 1880.878,218.755 1828.63,165.417 1776.384,218.755 
		1724.136,165.417 1671.89,218.755 1671.89,218.756 1619.644,165.417 1567.396,218.756 1515.15,165.417 1462.902,218.756 
		1410.656,165.417 1358.408,218.756 1306.162,165.417 1253.914,218.756 1201.667,165.417 1149.419,218.756 1097.171,165.417 
		1044.923,218.756 992.677,165.417 940.432,218.756 888.184,165.417 835.938,218.756 783.691,165.417 731.443,218.756 
		679.197,165.417 626.949,218.756 574.702,165.417 522.455,218.756 470.208,165.417 417.961,218.756 365.713,165.417 
		313.467,218.756 261.219,165.417 208.972,218.756 156.726,165.417 104.479,218.756 52.231,165.417 -0.016,218.756 -0.016,256.638 
		52.231,203.467 104.479,256.638 156.726,203.467 208.972,256.638 261.219,203.467 313.467,256.638 365.713,203.467 
		417.961,256.638 470.208,203.467 522.455,256.638 574.702,203.467 626.949,256.638 679.197,203.467 731.443,256.638 
		783.691,203.467 835.938,256.638 888.184,203.467 940.432,256.638 992.677,203.467 1044.923,256.638 1097.171,203.467 
		1149.419,256.638 1201.667,203.467 1253.914,256.638 1306.162,203.467 1358.408,256.638 1410.656,203.467 1462.902,256.638 
		1515.15,203.467 1567.396,256.638 1619.644,203.467 1671.89,256.638 1724.136,203.467 1776.384,256.638 1828.63,203.467 
		1880.878,256.638 1933.125,203.467 1985.373,256.638 2037.619,203.467 2089.867,256.638 2089.867,218.755 2037.619,165.417 	"/>
	<polygon fill="#fcfaf8" points="1985.373,294.657 1933.125,241.319 1880.878,294.657 1828.63,241.319 1776.384,294.657 
		1724.136,241.319 1671.89,294.657 1671.89,294.658 1619.644,241.319 1567.396,294.658 1515.15,241.319 1462.902,294.658 
		1410.656,241.319 1358.408,294.658 1306.162,241.319 1253.914,294.658 1201.667,241.319 1149.419,294.658 1097.171,241.319 
		1044.923,294.658 992.677,241.319 940.432,294.658 888.184,241.319 835.938,294.658 783.691,241.319 731.443,294.658 
		679.197,241.319 626.949,294.658 574.702,241.319 522.455,294.658 470.208,241.319 417.961,294.658 365.713,241.319 
		313.467,294.658 261.219,241.319 208.972,294.658 156.726,241.319 104.479,294.658 52.231,241.319 -0.016,294.658 -0.016,332.541 
		52.231,279.369 104.479,332.541 156.726,279.369 208.972,332.541 261.219,279.369 313.467,332.541 365.713,279.369 
		417.961,332.541 470.208,279.369 522.455,332.541 574.702,279.369 626.949,332.541 679.197,279.369 731.443,332.541 
		783.691,279.369 835.938,332.541 888.184,279.369 940.432,332.541 992.677,279.369 1044.923,332.541 1097.171,279.369 
		1149.419,332.541 1201.667,279.369 1253.914,332.541 1306.162,279.369 1358.408,332.541 1410.656,279.369 1462.902,332.541 
		1515.15,279.369 1567.396,332.541 1619.644,279.369 1671.89,332.541 1724.136,279.369 1776.384,332.541 1828.63,279.369 
		1880.878,332.541 1933.125,279.369 1985.373,332.541 2037.619,279.369 2089.867,332.541 2089.867,294.657 2037.619,241.319 	"/>
</g>
</svg>
