<?xml version="1.0" encoding="utf-8"?>
<!-- Generator: Adobe Illustrator 16.0.0, SVG Export Plug-In . SVG Version: 6.00 Build 0)  -->
<!DOCTYPE svg PUBLIC "-//W3C//DTD SVG 1.1//EN" "http://www.w3.org/Graphics/SVG/1.1/DTD/svg11.dtd">
<svg version="1.1" id="Layer_1" xmlns="http://www.w3.org/2000/svg" xmlns:xlink="http://www.w3.org/1999/xlink" x="0px" y="0px"
	 width="506.896px" height="270.345px" viewBox="0 0 506.896 270.345" enable-background="new 0 0 506.896 270.345"
	 xml:space="preserve">
<g>
	<g>
		<path fill-rule="evenodd" clip-rule="evenodd" fill="#0ABAB5" d="M252.256,122.856c-5.275,0.01-54.446-2.641-35.758,30.785
			c7.8,13.569,20.74,15.188,26.996,11.459c6.907-3.247,19.435-34.516,19.435-34.516c4.602,0.5,34.009,3.666,36.934-6.678
			c1.828-6.814-3.955-9.113-4.629-9.389c-0.978-0.401-3.403,0.066-3.293,1.114c2.341,10.89-26.274,8.499-26.064,8.054
			c0.134-0.285,21.119-50.473,21.457-51.291c0.696-1.679,0.374-2.353-1.35-2.778c-2.95-0.727-5.171,0.103-7.902,1.308
			c-1.158,0.513-2.66,1.138-3.112,2.297c0,0-2.133,5.263-6.094,14.694c-3.406,8.11-8.663,14.37-19.165,14.301
			c0,0-1.542-0.095-1.784-1.169c-0.122-3.93,10.362-25.561,11.722-27.851c0.419-0.705,0.738-1.472,1.063-2.227
			c0.341-0.787,0.082-1.375-0.726-1.662c-2.909-1.038-5.83-1.238-8.729,0.017c-1.798,0.777-3.662,1.492-4.45,3.559
			c-0.884,2.32-10.073,23.993-11.362,28.458c-1.479,5.124,2.424,7.041,2.424,7.041c8.453,4.311,22.868-3.566,23.849-3.627
			c-0.101,0.334-6.063,14.692-7.18,17.038C253.769,123.408,254.011,122.853,252.256,122.856z M227.954,159.563
			c-20.234-23.852,23.812-30.951,23.157-29.877C251.111,129.687,236.79,168.69,227.954,159.563z M160.695,110.144
			c0.041,0.604,0.232,1.111,0.619,1.554c0.536,0.527,1.887,0.609,2.897,0.284c2.667-0.858,4.571-1.339,7.361-2.49
			c0.629-0.19,1.247-0.567,1.566-1.222c0.251-0.777,10.972-25.542,12.734-30.428c0.26-0.72,0.529-1.66,1.312-1.76
			c1.285-0.163,7.163-1.995,8.433-2.196c2.369-0.374,3.154,0.4,2.591,2.683c-0.272,1.105-0.628,2.197-1.041,3.258
			c-1.333,3.424-10.566,24.713-11.465,27.652c-0.65,1.866,0.081,4.341,3.266,3.311c2.339-0.841,4.291-1.283,6.632-2.341
			c2.736-1.294,3.313-2.496,4.2-4.743c1.811-4.588,10.073-23.37,10.451-24.795c0.886-4.072,9.295-4.698,10.299-4.813
			c1.843-0.211,4.327-0.281,2.102,5.512c-1.048,2.563-11.719,26.644-12.499,30.713c-0.458,2.387,0.021,5.131,1.652,7.168
			c7.373,8.484,20.121-2.067,19.283-4.463c-0.268-0.766-0.885-1.002-1.125-0.183c-0.608,2.071-4.089,3.041-6.122,3.378
			c-1.827,0.303-3.931-1.931-1.656-6.874c1.603-3.763,10.672-24.981,12.045-28.522c2.033-6.44-0.026-9.008-0.43-9.602
			c-1.522-2.237-3.568-3.585-6.334-3.647c-1.459-0.033-2.933-0.098-4.379,0.047c-2.976,0.3-5.907,0.893-8.644,2.15
			c-1.925,0.886-1.984,1.001-3.272-0.665c-1.538-1.989-3.399-3.157-5.972-3.013c-5.113,0.287-7.303,0.757-12.358,2.711
			c-1.804,0.535-2.489,0.929-3.29,0.781c-0.072-0.92,0.981-2.071,0.894-3.002c-0.061-0.653-1.067-1.05-1.747-1.072
			c-1.901-0.065-8.191,1.045-10.075,1.407c-1.058,0.202-2.404,3.166-3.294,5.292c-2.831,6.755-12.202,28.824-12.891,30.799
			C161.63,105.337,160.531,107.72,160.695,110.144z M208.751,45.241c29.506-14.697,64.109,0.955,76.976,6.295
			c8.486,3.692,16.286,5.76,19.895,6.612l-0.194,0.466c0,0-18.964,43.349-19.285,46.035c-0.161,1.354-0.006,1.794,0.801,2.816
			c0.592,0.645,0.547,0.608,1.654,1.132c4.928,2.451,13.559,1.504,16.953,0.498c15.401-4.658,24.544-19.232,27.605-24.924
			c1.983,0.155,3.392,0.064,3.392,0.064s-8.608,13.289-9.228,21.317c-0.538,6.977,0.769,9.685,4.181,11.2
			c1.36,0.552,2.396,0.72,3.347,0.545c6.667-1.645,23.999-16.404,23.999-16.404s0.527-0.396,1.225-1.009
			c0.039,0.064,0.079,0.13,0.122,0.193c4.913,7.236,12.065,10.808,20.39,9.143c12.558-3.04,19.228-11.714,20.88-14.408
			c1.141-1.724,2.321-3.397,2.321-3.397s43.943,0.179,40.646-19.844c-1.85-11.241-11.933-14.167-11.933-14.167
			c12.118,19.38-9.473,26.436-19.899,28.64c-1.952,0.412-4.727,0.429-6.486,0.388c-0.133-0.022-0.273-0.043-0.398-0.067
			c0.436-1.867,0.178-3.967-0.338-5.789c-1.319-4.665-6.303-13.013-17.448-14.014c-14.225-1.08-32.476,13.331-29.686,28.321
			c-0.098,0.09-0.188,0.171-0.288,0.264c-16.821,15.6-32.845,20.72-9.052-8.015c5.725-6.913-1.93-8.014-1.93-8.014l-9.571-2.672
			c0,0,4.388-7.18,2.256-9.149c-2.865-2.648-20.666-0.168-19.039,8.844c0.678,3.759,3.563,5.786,6.695,6.878
			c-4.398,7.307-12.337,19.097-24.443,19.956c-1.888,0.29-3.827,0.257-3.279-1.752c0.425-1.562,15.636-37.836,17.234-41.017
			c45.28,10.809,28.314-14.564,28.059-15.055c-0.381-0.328-0.107,12.553-25.328,8.718c0.521-0.962,8.836-19.604,10.968-24.383
			c1.155-2.589,1.976-5.31,3.018-7.94c0.569-1.437,0.34-1.903-1.025-2.599c-1.231-0.627-2.521-0.745-3.842-0.545
			c-2.15,0.324-4.181,1.142-6.248,1.795c-1.193,0.378-1.995,1.21-2.352,2.566c-0.334,1.27-0.8,2.507-1.289,3.722
			c-2.564,6.347-6.637,17.022-9.619,23.148l-0.702,1.689c-9.499-1.459-30.711-19.021-50.525-25.745
			C226.06,15.416,207.534,46.092,208.751,45.241z M393.093,72.123c5.41,4.689,4.285,12.096,3.782,12.839
			c-2.489-0.909-10.783-4.804-11.507-8.188C383.41,71.579,389.077,68.861,393.093,72.123z M372.015,90.076
			c3.332-5.962,5.018-7.724,5.018-7.724s0.721-0.998,1.562-0.25c3.992,3.549,8.665,5.906,13.613,7.787
			c0.473,0.18,0.952,0.346,1.421,0.534c0.812,0.323,1.006,0.811,0.582,1.637c-0.977,1.914-8.382,9.577-14.168,10.894
			C374.255,104.272,367.901,97.896,372.015,90.076z M490.231,166.968c0,0-34.139-31.203-53.761,16.704
			c-7.079,21.205,10.867,25.622,15.403,16.183c0.281-0.509,0.489-1.064,0.608-1.652c0.022-0.084,0.054-0.16,0.074-0.246
			c0,0-0.015,0.008-0.04,0.021c0.05-0.306,0.082-0.617,0.082-0.937c0-3.225-2.619-5.842-5.85-5.842
			c-0.485,0-0.953,0.066-1.403,0.176c4.725-10.059,19.868-25.436,35.001-19.952c13.65,4.945,20.293,24.421-1.949,44.304
			c-22.244,19.884-54.035,27.236-69.524,13.612c-11.979-9.909,8.926-36.975,8.926-36.975s10.821-13.018,2.056-18.458
			c-4.207-2.132-5.1-2.335-5.1-2.335s-0.888,1.628-2.287,3.854c-0.535-2.254-2.213-4.413-6.386-5.223
			c-10.101-1.961-27.027,1.405-33.964,18.856c-2.172,5.466-2.62,10.284-2.101,14.193c-4.534,2.299-9.567,4.674-11.062,4.513
			c-2.134-0.109-2.655-1.191-2.825-2.438c-0.17-1.246,9.574-29.296,18.583-42.55c51.236,3.305,44.246-50.812,38.844-54.557
			c-1.739-1.774-6.522-2.768-9.75-1.704c-6.958,1.463-23.118,22.98-37.053,46.435c-10.483-5.48-25.013-15.01-38.839-19.419
			c-30.875-9.249-48.817,18.669-47.639,17.895c28.577-13.374,62.092,0.869,74.553,5.729c3.151,1.288,5.671,2.196,7.821,2.874
			c-13.859,24.519-24.098,49.169-17.992,53.785c7.226,5.041,19.315-0.968,26.679-5.618c1.135,2.65,2.756,4.481,4.336,5.302
			c2.338,1.213,7.649,3.486,12.979-3.371c3.122-4.019,6.129-7.635,8.615-10.534c-3.596,11.019-5.027,25.459,3.777,32.753
			c14.179,11.745,58.989,13.226,82.878-3.407C525.117,197.956,490.231,166.968,490.231,166.968z M411.219,116.479
			c0.834,0.694,0.1,3.471-0.195,4.858c-4.96,23.427-22.324,35.9-31.797,35.628l0.042-0.069c-0.094,0.025-0.2,0.034-0.299,0.054
			c-0.229-0.013-0.457-0.026-0.676-0.054C378.556,154.545,405.494,113,411.219,116.479z M394.096,196.271
			c-5.841,6.956-9.683,11.282-9.683,11.282c-4.994-11.146,3.773-24.036,10.781-28.751c7.005-4.716,12.048-4.018,14.773-2.998
			C412.783,176.854,401.19,187.821,394.096,196.271z M332.318,174.661h-1.807l-3.673,8.656c-0.975,2.179-9.792,22.18-10.517,25.641
			c-0.425,2.029,0.02,4.363,1.536,6.097c6.856,7.213,19.615-1.759,18.838-3.797c-0.249-0.65-1.729-0.852-1.953-0.153
			c-0.566,1.76-3.803,2.584-5.692,2.871c-1.7,0.259-3.656-1.643-1.541-5.844c1.491-3.201,9.975-20.69,11.251-23.703
			c1.185-2.945,1.427-5.966,0.714-7.311C338.363,175.024,334.891,174.712,332.318,174.661z M316.145,185.505
			c2.032-6.441,0.405-8.365,0-8.96c-1.521-2.237-3.33-3.253-6.097-3.315c-1.459-0.031-2.933-0.099-4.379,0.048
			c-2.976,0.301-5.906,0.892-8.644,2.15c-1.564,0.72-1.858,0.854-3.194,1.034l0.624-1.636c0,0,0.226-2.859-2.132-2.526
			c-3.001,0.425-4.128,0.412-7.045,1.26c-1.726,0.501-2.578,1.5-3.293,3.051c-0.757,1.643-3.974,9.188-7.365,17.244
			c-2.941,0.098-6.533-0.015-8.732-0.435c0.436-1.866,0.178-3.968-0.338-5.789c-1.319-4.664-6.303-13.013-17.449-14.014
			c-15.668-1.189-36.226,16.415-28.163,32.888c0.167,0.188,0.287,0.418,0.429,0.627c4.913,7.237,12.065,10.809,20.389,9.145
			c12.558-3.041,19.228-11.715,20.88-14.409c0.745-1.216,1.692-2.606,1.692-2.606c3.864-0.335,7.147-0.94,9.661-1.529
			c-3.569,8.515-6.931,16.643-7.414,18.088c-0.685,2.053,0.222,2.8,2.33,2.589c3.48-0.346,6.813-1.264,9.811-2.874
			c0.872-0.469,1.139-1.775,1.929-3.59c0.863-1.977,9.025-22.478,10.25-25.17l0.092-0.244c2.072-3.541,10.065-6.117,10.98-6.221
			c1.844-0.211,5.274-0.79,3.05,5.004c-1.049,2.563-11.479,26.591-12.258,30.66c-0.458,2.389,0.021,5.132,1.652,7.168
			c7.373,8.484,21.096-2.066,20.258-4.462c-0.268-0.766-1.859-1.003-2.101-0.183c-0.607,2.071-4.088,3.041-6.122,3.379
			c-1.826,0.302-3.931-1.932-1.655-6.875C305.395,211.238,314.784,189.217,316.145,185.505z M254.384,199.115
			c-0.977,1.913-8.382,9.577-14.168,10.894c-5.786,1.317-12.14-5.058-8.027-12.877c3.332-5.963,5.017-7.725,5.017-7.725
			s0.721-0.998,1.562-0.25c3.993,3.549,8.665,5.906,13.613,7.787c0.473,0.18,0.952,0.346,1.421,0.533
			C254.613,197.802,254.808,198.288,254.384,199.115z M257.049,192.017c-2.49-0.909-10.783-4.804-11.507-8.188
			c-1.958-5.195,3.708-7.914,7.724-4.652C258.676,183.866,257.552,191.272,257.049,192.017z M188.832,252.905
			c-3.231,0-5.85,2.617-5.85,5.842c0,1.193,0.36,2.301,0.975,3.225c-0.954-0.348-1.822-0.836-2.548-1.48
			c-36.031-31.964,16.064-127.136,16.064-132.721c0-6.062-12.749-11.517-19.426-10.305c-6.678,1.212-52.208,70.919-52.208,70.919
			s6.838-18.661,9.384-32.445c0.612-3.315,1.16-7.652-0.17-12.946c-1.535-4.282-4.065-7.466-7.232-9.697l0.003-0.002
			c-3.832-2.571-12.486-9.994-34.455-0.753c-5.839,3.371-11.453,6.959-15.879,12.206c-3.591,4.256-6.813,8.647-8.429,14.066
			c-1.247,4.183-1.325,8.449-0.246,12.564c1.964,7.494,7.183,11.371,14.312,12.437c1.809,0.271,3.689-0.059,5.329-0.878
			c0.97-0.378,1.813-1.004,2.451-1.803c0.004-0.005,0.009-0.008,0.013-0.013c0.137-0.146,0.225-0.278,0.293-0.405
			c0.612-0.923,0.97-2.027,0.97-3.219c0-3.225-2.62-5.841-5.85-5.841c-0.368,0-0.727,0.038-1.076,0.103
			c-0.362-2.402-0.016-4.787,0.271-7.182c0.587-4.905,2.279-9.353,5.091-13.447c1.773-2.583,3.949-4.755,6.081-7.001
			c10.472-8.092,17.862-8.794,24.258-6.669c4.173,1.782,4.75,4.988,4.601,7.992c-1.161,23.206-32.499,100.516-32.499,100.516
			s6.686,9.137,11.149-1.542c15.601-37.318,71.322-100.165,68.893-96.528c-2.428,3.636-17.785,54.99-17.054,73.001
			c-0.209,7.126,2.473,40.358,24.379,45.957c3.5,0.896,11.692-0.027,13.743-5.722c0.328-0.728,0.514-1.534,0.514-2.385
			C194.682,255.522,192.063,252.905,188.832,252.905z M218.868,174.71c-8.354-12.154-21.403-3.834-27.152,1.079
			c-5.079,4.341-16.389,16.07-8.857,32.68c2.567,5.661,6.995,8.194,12.838,8.858c9.082,0.899,12.968-4.415,13.507-6.781
			c0.148-0.647-0.401-0.33-0.541-0.15c-2.287,2.959-6.255,2.975-7.849,2.793c-1.792-0.203-10.829-2.969-7.249-14.409
			C193.567,198.779,226.745,192.108,218.868,174.71z M212.719,177.695c3.102,13.347-18.198,15.67-18.198,15.67
			C196.427,187.522,210.897,171.128,212.719,177.695z M345.725,163.056c0-3.225-2.62-5.841-5.851-5.841s-5.85,2.616-5.85,5.841
			c0,3.228,2.619,5.842,5.85,5.842S345.725,166.283,345.725,163.056z M74.32,109.461c24.983,8.22,37.118,7.753,52.344,3.363
			c52.295-20.953,43.845-69.274,20.687-91.371C143.612,18.372,127.77,5.5,99.849,4.935C95.171,4.56,90.547,4.83,85.961,5.668
			c-2.978,0.544-5.898,1.369-8.817,2.205c-4.203,1.202-8.353,2.46-12.175,4.665c-5.839,3.37-11.453,6.958-15.879,12.204
			c-3.591,4.257-6.813,8.649-8.429,14.068c-1.247,4.182-1.324,8.448-0.246,12.564c1.964,7.494,7.182,11.371,14.311,12.436
			c2.818,0.42,5.328-0.618,7.299-2.716c0.147-0.157,0.256-0.298,0.347-0.432c1.071-1.059,1.735-2.527,1.735-4.15
			c0-3.225-2.619-5.841-5.85-5.841c-0.52,0-1.02,0.074-1.5,0.201c-0.175-2.104,0.118-4.197,0.369-6.297
			c0.587-4.906,2.279-9.354,5.091-13.448c1.773-2.583,3.949-4.756,6.081-7c3.043-3.204,6.447-5.951,10.423-7.87
			c5.792-2.795,11.852-4.736,18.301-5.428c3.864-0.414,7.696-0.126,11.482,0.387c4.798,0.65,20.24,4.264,32.052,16.491
			c24.143,28.804-3.907,71.454-24.005,77.583c-23.171,7.067-35.771-1.151-41.298-2.104c-0.805-0.139-1.124-0.623-0.904-1.467
			c0.304-1.173,0.539-2.361,0.813-3.542c1.876-8.075,13.768-47.163,27.863-54.077c3.922-1.493,6.996-1.809,9.419-1.481
			c-1.076,1.06-1.744,2.531-1.744,4.158c0,3.227,2.619,5.841,5.85,5.841c3.23,0,5.85-2.614,5.85-5.841
			c0-0.027-0.004-0.053-0.004-0.079c0.002-0.073,0.004-0.146,0.004-0.216c0,0-0.009-0.079-0.025-0.193
			c-0.028-0.34-0.088-0.67-0.171-0.991c-0.097-0.458-0.23-0.959-0.408-1.341c-0.774-2.534-13.65-18.619-33.803,0.696
			c-0.254,0.311-12.39,11.23-26.268,53.083c-0.5,1.564-0.979,1.79-2.549,1.7c-12.62-1.691-54.75-3.962-52.046,32.45
			c0.709,5.288,4.447,12.266,7.687,15.013c6.063,4.635,11.592,4.828,19.592,3.54c27.557-6.085,35.987-34.591,37.336-39.551
			C72.239,109.075,72.493,108.94,74.32,109.461z M31.404,145.514c-22.588-8.099,4.078-44.674,27.625-38.278
			C55.945,119.687,43.43,148.991,31.404,145.514z"/>
	</g>
</g>
</svg>
